<?xml version="1.0" encoding="UTF-8"?>
<svg aria-hidden="true" style="position: absolute; width: 0; height: 0; overflow: hidden;" version="1.1" xmlns="http://www.w3.org/2000/svg" xmlns:xlink="http://www.w3.org/1999/xlink">
    <defs>
        <symbol id="icon-infinite" viewBox="0 0 24 24">
            <title>infinite</title>
            <!--Generated by IJSVG (https://github.com/iconjar/IJSVG)-->
            <path d="M18.6,6.62c-1.44,0 -2.8,0.56 -3.77,1.53l-2.83,2.51l-1.52,1.34h0.01l-2.69,2.39c-0.64,0.64 -1.49,0.99 -2.4,0.99c-1.87,0 -3.39,-1.51 -3.39,-3.38c0,-1.87 1.52,-3.38 3.39,-3.38c0.91,0 1.76,0.35 2.44,1.03l1.13,1l1.51,-1.34l-1.26,-1.11c-1.02,-1.02 -2.38,-1.58 -3.82,-1.58c-2.98,0 -5.4,2.42 -5.4,5.38c0,2.96 2.42,5.38 5.4,5.38c1.44,0 2.8,-0.56 3.77,-1.53l2.83,-2.5l0.01,0.01l1.51,-1.36h-0.01l2.69,-2.39c0.64,-0.64 1.49,-0.99 2.4,-0.99c1.87,0 3.39,1.51 3.39,3.38c0,1.87 -1.52,3.38 -3.39,3.38c-0.9,0 -1.76,-0.35 -2.44,-1.03l-1.14,-1.01l-1.51,1.34l1.27,1.12c1.02,1.01 2.37,1.57 3.82,1.57c2.98,0 5.4,-2.41 5.4,-5.38c0,-2.97 -2.42,-5.37 -5.4,-5.37Z"></path>
            <path fill="none" d="M0,0h24v24h-24v-24Z"></path>
        </symbol>
        <symbol id="icon-chevron_right" viewBox="0 0 24 24">
            <title>chevron right</title>
            <path d="M10 6L8.59 7.41 13.17 12l-4.58 4.59L10 18l6-6z"/>
            <path d="M0 0h24v24H0z" fill="none"/>
        </symbol>
        <symbol id="icon-chevron_left" viewBox="0 0 24 24">
            <title>chevron left</title>
            <path d="M15.41 7.41L14 6l-6 6 6 6 1.41-1.41L10.83 12z"/>
            <path d="M0 0h24v24H0z" fill="none"/>
        </symbol>
        <symbol id="icon-chat" viewBox="0 0 24 24">
            <title>chat</title>
            <path d="M20 2H4c-1.1 0-2 .9-2 2v18l4-4h14c1.1 0 2-.9 2-2V4c0-1.1-.9-2-2-2z"/>
            <path d="M0 0h24v24H0z" fill="none"/>
        </symbol>
        <symbol id="icon-settings" viewBox="0 0 24 24">
            <title>settings</title>
            <path d="M0 0h24v24H0z" fill="none"/>
            <path d="M19.43 12.98c.04-.32.07-.64.07-.98s-.03-.66-.07-.98l2.11-1.65c.19-.15.24-.42.12-.64l-2-3.46c-.12-.22-.39-.3-.61-.22l-2.49 1c-.52-.4-1.08-.73-1.69-.98l-.38-2.65C14.46 2.18 14.25 2 14 2h-4c-.25 0-.46.18-.49.42l-.38 2.65c-.61.25-1.17.59-1.69.98l-2.49-1c-.23-.09-.49 0-.61.22l-2 3.46c-.13.22-.07.49.12.64l2.11 1.65c-.04.32-.07.65-.07.98s.03.66.07.98l-2.11 1.65c-.19.15-.24.42-.12.64l2 3.46c.12.22.39.3.61.22l2.49-1c.52.4 1.08.73 1.69.98l.38 2.65c.03.24.24.42.49.42h4c.25 0 .46-.18.49-.42l.38-2.65c.61-.25 1.17-.59 1.69-.98l2.49 1c.23.09.49 0 .61-.22l2-3.46c.12-.22.07-.49-.12-.64l-2.11-1.65zM12 15.5c-1.93 0-3.5-1.57-3.5-3.5s1.57-3.5 3.5-3.5 3.5 1.57 3.5 3.5-1.57 3.5-3.5 3.5z"/>
        </symbol>
        <symbol id="icon-trends" viewBox="0 0 24 24">
            <title>trends</title>
            <path d="M13.5.67s.74 2.65.74 4.8c0 2.06-1.35 3.73-3.41 3.73-2.07 0-3.63-1.67-3.63-3.73l.03-.36C5.21 7.51 4 10.62 4 14c0 4.42 3.58 8 8 8s8-3.58 8-8C20 8.61 17.41 3.8 13.5.67zM11.71 19c-1.78 0-3.22-1.4-3.22-3.14 0-1.62 1.05-2.76 2.81-3.12 1.77-.36 3.6-1.21 4.62-2.58.39 1.29.59 2.65.59 4.04 0 2.65-2.15 4.8-4.8 4.8z"/>
            <path d="M0 0h24v24H0z" fill="none"/>
        </symbol>
        <symbol id="icon-search" viewBox="0 0 24 24">
            <title>search</title>
            <path d="M15.5 14h-.79l-.28-.27C15.41 12.59 16 11.11 16 9.5 16 5.91 13.09 3 9.5 3S3 5.91 3 9.5 5.91 16 9.5 16c1.61 0 3.09-.59 4.23-1.57l.27.28v.79l5 4.99L20.49 19l-4.99-5zm-6 0C7.01 14 5 11.99 5 9.5S7.01 5 9.5 5 14 7.01 14 9.5 11.99 14 9.5 14z"/>
            <path d="M0 0h24v24H0z" fill="none"/>
        </symbol>
        <symbol id="icon-mail" viewBox="0 0 24 24">
            <title>mail</title>
            <path d="M20 4H4c-1.1 0-1.99.9-1.99 2L2 18c0 1.1.9 2 2 2h16c1.1 0 2-.9 2-2V6c0-1.1-.9-2-2-2zm0 4l-8 5-8-5V6l8 5 8-5v2z"/>
            <path d="M0 0h24v24H0z" fill="none"/>
        </symbol>
        <symbol id="icon-lock" viewBox="0 0 24 24">
            <title>lock</title>       
            <path d="M0 0h24v24H0z" fill="none"/>
            <path d="M18 8h-1V6c0-2.76-2.24-5-5-5S7 3.24 7 6v2H6c-1.1 0-2 .9-2 2v10c0 1.1.9 2 2 2h12c1.1 0 2-.9 2-2V10c0-1.1-.9-2-2-2zm-6 9c-1.1 0-2-.9-2-2s.9-2 2-2 2 .9 2 2-.9 2-2 2zm3.1-9H8.9V6c0-1.71 1.39-3.1 3.1-3.1 1.71 0 3.1 1.39 3.1 3.1v2z"/>
        </symbol>
        <symbol id="icon-pen" viewBox="0 0 24 24">
            <title>pen</title>       
            <path d="M3 17.25V21h3.75L17.81 9.94l-3.75-3.75L3 17.25zM20.71 7.04c.39-.39.39-1.02 0-1.41l-2.34-2.34c-.39-.39-1.02-.39-1.41 0l-1.83 1.83 3.75 3.75 1.83-1.83z"/>
            <path d="M0 0h24v24H0z" fill="none"/>
        </symbol>
        <symbol id="icon-error" viewBox="0 0 24 24">
            <title>error</title>       
            <path fill="none" d="M0 0h24v24H0V0z"/>
            <path d="M11 15h2v2h-2zm0-8h2v6h-2zm.99-5C6.47 2 2 6.48 2 12s4.47 10 9.99 10C17.52 22 22 17.52 22 12S17.52 2 11.99 2zM12 20c-4.42 0-8-3.58-8-8s3.58-8 8-8 8 3.58 8 8-3.58 8-8 8z"/>
        </symbol>
        <symbol id="icon-check" viewBox="0 0 24 24">
            <title>check</title>       
            <path d="M0 0h24v24H0z" fill="none"/>
            <path d="M9 16.17L4.83 12l-1.42 1.41L9 19 21 7l-1.41-1.41z"/>
        </symbol>
        <symbol id="icon-sync" viewBox="0 0 24 24">
            <title>sync</title>       
            <path d="M12 4V1L8 5l4 4V6c3.31 0 6 2.69 6 6 0 1.01-.25 1.97-.7 2.8l1.46 1.46C19.54 15.03 20 13.57 20 12c0-4.42-3.58-8-8-8zm0 14c-3.31 0-6-2.69-6-6 0-1.01.25-1.97.7-2.8L5.24 7.74C4.46 8.97 4 10.43 4 12c0 4.42 3.58 8 8 8v3l4-4-4-4v3z"/>
            <path d="M0 0h24v24H0z" fill="none"/>
        </symbol>
        <symbol id="icon-exit" viewBox="0 0 24 24">
            <title>exit</title>       
            <path d="M0 0h24v24H0z" fill="none"/>
            <path d="M21 3.01H3c-1.1 0-2 .9-2 2V9h2V4.99h18v14.03H3V15H1v4.01c0 1.1.9 1.98 2 1.98h18c1.1 0 2-.88 2-1.98v-14c0-1.11-.9-2-2-2zM11 16l4-4-4-4v3H1v2h10v3z"/>
        </symbol>
        <symbol id="icon-cross" viewBox="0 0 350 350">
            <title>cross</title>       
           <path d="M310.199,18.71C297.735,6.242,282.65,0.007,264.951,0.007H63.954c-17.703,0-32.79,6.235-45.253,18.704
			C6.235,31.177,0,46.261,0,63.96v200.991c0,17.515,6.232,32.552,18.701,45.11c12.467,12.566,27.553,18.843,45.253,18.843h201.004
			c17.699,0,32.777-6.276,45.248-18.843c12.47-12.559,18.705-27.596,18.705-45.11V63.96
			C328.911,46.261,322.666,31.177,310.199,18.71z M292.362,264.96c0,7.614-2.673,14.089-8.001,19.414
			c-5.324,5.332-11.799,7.994-19.41,7.994H63.954c-7.614,0-14.082-2.662-19.414-7.994c-5.33-5.325-7.992-11.8-7.992-19.414V63.965
			c0-7.613,2.662-14.086,7.992-19.414c5.327-5.327,11.8-7.994,19.414-7.994h201.004c7.61,0,14.086,2.663,19.41,7.994
			c5.325,5.328,7.994,11.801,7.994,19.414V264.96z"/>
		<path d="M246.683,146.189H182.73V82.236c0-2.667-0.855-4.854-2.573-6.567c-1.704-1.714-3.895-2.568-6.564-2.568h-18.271
			c-2.667,0-4.854,0.854-6.567,2.568c-1.714,1.713-2.568,3.903-2.568,6.567v63.954H82.233c-2.664,0-4.857,0.855-6.567,2.568
			c-1.711,1.713-2.568,3.903-2.568,6.567v18.271c0,2.666,0.854,4.855,2.568,6.563c1.712,1.708,3.903,2.57,6.567,2.57h63.954v63.953
			c0,2.666,0.854,4.855,2.568,6.563c1.713,1.711,3.903,2.566,6.567,2.566h18.271c2.67,0,4.86-0.855,6.564-2.566
			c1.718-1.708,2.573-3.897,2.573-6.563V182.73h63.953c2.662,0,4.853-0.862,6.563-2.57c1.712-1.708,2.563-3.897,2.563-6.563v-18.271
			c0-2.664-0.852-4.857-2.563-6.567C251.536,147.048,249.345,146.189,246.683,146.189z"/>
        </symbol>

        <symbol id="icon-rotate_right" viewBox="0 0 24 24">
            <title>rotate-right</title>
            <path d="M0 0h24v24H0z" fill="none"/>
            <path d="M15.55 5.55L11 1v3.07C7.06 4.56 4 7.92 4 12s3.05 7.44 7 7.93v-2.02c-2.84-.48-5-2.94-5-5.91s2.16-5.43 5-5.91V10l4.55-4.45zM19.93 11c-.17-1.39-.72-2.73-1.62-3.89l-1.42 1.42c.54.75.88 1.6 1.02 2.47h2.02zM13 17.9v2.02c1.39-.17 2.74-.71 3.9-1.61l-1.44-1.44c-.75.54-1.59.89-2.46 1.03zm3.89-2.42l1.42 1.41c.9-1.16 1.45-2.5 1.62-3.89h-2.02c-.14.87-.48 1.72-1.02 2.48z"/>
        </symbol>
        <symbol id="icon-portrait" viewBox="0 0 24 24">
            <title>portrait</title>
            <path d="M0 0h24v24H0z" fill="none"/>
            <path d="M12 12.25c1.24 0 2.25-1.01 2.25-2.25S13.24 7.75 12 7.75 9.75 8.76 9.75 10s1.01 2.25 2.25 2.25zm4.5 4c0-1.5-3-2.25-4.5-2.25s-4.5.75-4.5 2.25V17h9v-.75zM19 3H5c-1.1 0-2 .9-2 2v14c0 1.1.9 2 2 2h14c1.1 0 2-.9 2-2V5c0-1.1-.9-2-2-2zm0 16H5V5h14v14z"/>
        </symbol>
        <symbol id="icon-smartphone" viewBox="0 0 24 24">
            <title>smartphone</title>
            <path d="M31 2H15c-2.76 0-5 2.24-5 5v34c0 2.76 2.24 5 5 5h16c2.76 0 5-2.24 5-5V7c0-2.76-2.24-5-5-5zm-8 42c-1.66 0-3-1.34-3-3s1.34-3 3-3 3 1.34 3 3-1.34 3-3 3zm9-8H14V8h18v28z"/>
            <path d="M0 0h48v48H0z" fill="none"/>
        </symbol>
         <symbol id="icon-pin" viewBox="0 0 24 24">
            <title>map pin</title>
            <path d="M12 2C8.13 2 5 5.13 5 9c0 5.25 7 13 7 13s7-7.75 7-13c0-3.87-3.13-7-7-7zm0 9.5c-1.38 0-2.5-1.12-2.5-2.5s1.12-2.5 2.5-2.5 2.5 1.12 2.5 2.5-1.12 2.5-2.5 2.5z"/>
            <path d="M0 0h24v24H0z" fill="none"/>
        </symbol>
         <symbol id="icon-mountain" viewBox="0 0 24 24">
            <title>mountain</title>
            <path d="M0 0h24v24H0z" fill="none"/>
            <path d="M14 6l-3.75 5 2.85 3.8-1.6 1.2C9.81 13.75 7 10 7 10l-6 8h22L14 6z"/>
        </symbol>
        <symbol id="icon-phone" viewBox="0 0 24 24">
            <title>phone</title>
            <path d="M0 0h24v24H0z" fill="none"/>
            <path d="M6.62 10.79c1.44 2.83 3.76 5.14 6.59 6.59l2.2-2.2c.27-.27.67-.36 1.02-.24 1.12.37 2.33.57 3.57.57.55 0 1 .45 1 1V20c0 .55-.45 1-1 1-9.39 0-17-7.61-17-17 0-.55.45-1 1-1h3.5c.55 0 1 .45 1 1 0 1.25.2 2.45.57 3.57.11.35.03.74-.25 1.02l-2.2 2.2z"/>
        </symbol>
        <symbol id="icon-cross" viewBox="0 0 24 24">
            <title>cross</title>
                <polygon  points="77.6,21.1 49.6,49.2 21.5,21.1 19.6,23 47.6,51.1 19.6,79.2 21.5,81.1 49.6,53 77.6,81.1 79.6,79.2   51.5,51.1 79.6,23 "/>
        </symbol>
         <symbol id="icon-teams" viewBox="0  0 30 30">
            <title>teams</title>
            <path fill="" fill-rule="evenodd" d="M15.786 20.908h12.143c3.277 0 5.947 2.484 6.067 5.59l.004.218v5.808h-2.429v-5.808c0-1.862-1.527-3.383-3.449-3.48l-.193-.005H15.786c-1.947 0-3.538 1.462-3.638 3.3l-.005.185v5.808H9.714v-5.808c0-3.134 2.596-5.69 5.844-5.804l.228-.004h12.143zm6.071-12.777c3.353 0 6.072 2.6 6.072 5.808 0 3.207-2.719 5.808-6.072 5.808s-6.071-2.6-6.071-5.808c0-3.208 2.718-5.808 6.071-5.808zm-8.5 2.323v2.323h-8.5c-1.341 0-2.428 1.04-2.428 2.323v4.647H0V15.1c0-2.566 2.175-4.646 4.857-4.646h8.5zm8.5 0c-2.012 0-3.643 1.56-3.643 3.485 0 1.924 1.631 3.485 3.643 3.485 2.012 0 3.643-1.56 3.643-3.485 0-1.925-1.631-3.485-3.643-3.485zM8.427 0c2.683 0 4.857 2.08 4.857 4.646S11.11 9.293 8.427 9.293c-2.682 0-4.857-2.08-4.857-4.647C3.57 2.08 5.745 0 8.427 0zm0 2.323C7.086 2.323 6 3.363 6 4.646S7.086 6.97 8.427 6.97s2.429-1.04 2.429-2.323-1.088-2.323-2.429-2.323z"/>
        </symbol>
        <symbol id="icon-clipboard" viewBox="0  0 30 30">
            <title>clipboard</title>
            <path fill="#FFF" fill-rule="evenodd" d="M9 0h4a3 3 0 0 1 2.751 1.824L15.82 2H19a3 3 0 0 1 2.995 2.824L22 5v20a3 3 0 0 1-2.824 2.995L19 28H3a3 3 0 0 1-2.995-2.824L0 25V5a3 3 0 0 1 2.824-2.995L3 2h3.18A3 3 0 0 1 8.81.006L9 0h4zM6 4H3a1 1 0 0 0-.993.883L2 5v20a1 1 0 0 0 .883.993L3 26h16a1 1 0 0 0 .993-.883L20 25V5a1 1 0 0 0-.883-.993L19 4h-3v2H6V4zm5 14v2H6v-2h5zm5-4v2H6v-2h10zM13 2H9a1 1 0 0 0-.993.883L8 3v1h6V3a1 1 0 0 0-1-1z"/>
        </symbol>
        <symbol id="icon-bell" viewBox="-20 0 512 512.00102">
            <title>bell</title>
            <path fill="#FFF" d="m426.492188 348.875h-.03125c-14.722657-.007812-23.035157-7.648438-27.792969-25.53125-4.863281-18.289062-5.027344-44.8125-5.199219-72.894531-.207031-34.023438-.441406-72.585938-8.898438-107.074219-1-4.078125-5.121093-6.574219-9.199218-5.574219-4.074219 1-6.570313 5.117188-5.574219 9.195313 8.035156 32.75 8.261719 70.363281 8.464844 103.546875.179687 29.078125.34375 56.542969 5.707031 76.707031 2.332031 8.769531 5.675781 15.976562 9.996094 21.625h-316.855469c4.320313-5.648438 7.664063-12.855469 9.996094-21.625 5.363281-20.164062 5.53125-47.628906 5.707031-76.707031.269531-44.394531.578125-94.710938 18.742188-133.21875 20.445312-43.347657 61-64.421875 123.984374-64.421875 34.589844 0 62.894532 6.5 84.125 19.324218 18.410157 11.117188 31.925782 26.917969 41.320313 48.304688 1.6875 3.84375 6.175781 5.59375 10.019531 3.902344 3.84375-1.6875 5.59375-6.171875 3.90625-10.019532-10.550781-24.015624-26.492187-42.589843-47.382812-55.207031-13.335938-8.054687-28.996094-13.863281-46.832032-17.402343-1.796874-23.347657-21.355468-41.804688-45.15625-41.804688-23.800781 0-43.363281 18.460938-45.148437 41.8125-17.015625 3.371094-32.058594 8.804688-44.96875 16.285156-20.773437 12.039063-36.796875 29.785156-47.625 52.738282-19.59375 41.542968-19.914063 93.644531-20.191406 139.613281-.171875 28.082031-.332031 54.605469-5.199219 72.894531-4.757812 17.882812-13.070312 25.523438-27.792969 25.53125h-.03125c-24.582031 0-44.582031 20-44.582031 44.585938 0 24.582031 20 44.582031 44.582031 44.582031h48.128907c4.199218 0 7.605468-3.40625 7.605468-7.605469s-3.40625-7.601562-7.605468-7.601562h-48.128907c-16.195312 0-29.375-13.179688-29.375-29.375 0-16.195313 13.175781-29.371094 29.371094-29.375h.003906.027344 381.851563.027343.007813c16.191406.003906 29.367187 13.179687 29.367187 29.375 0 16.195312-13.179687 29.375-29.375 29.375h-303.359375c-4.199218 0-7.601562 3.402343-7.601562 7.601562s3.402344 7.605469 7.601562 7.605469h31.214844c3.847656 41.421875 38.785156 73.957031 81.195312 73.957031 42.40625 0 77.34375-32.535156 81.191407-73.957031h109.761719c24.582031 0 44.582031-20 44.582031-44.582031 0-24.585938-20-44.585938-44.582031-44.585938zm-190.953126-333.667969c14.5625 0 26.742188 10.402344 29.503907 24.164063-9.335938-1.101563-19.164063-1.675782-29.503907-1.675782-10.339843 0-20.167968.570313-29.5 1.671876 2.761719-13.761719 14.9375-24.160157 29.5-24.160157zm0 481.585938c-34.015624 0-62.121093-25.734375-65.90625-58.75h131.808594c-3.785156 33.015625-31.890625 58.75-65.902344 58.75zm0 0"/><path d="m357.632812 47.722656c.136719.074219 13.675782 7.800782 26.996094 25.75 17.84375 24.039063 26.886719 54.070313 26.886719 89.261719 0 4.199219 3.40625 7.605469 7.605469 7.605469 4.199218 0 7.605468-3.40625 7.605468-7.605469 0-48.445313-16.542968-80.601563-30.421874-99.042969-15.25-20.265625-30.644532-28.910156-31.292969-29.269531-3.667969-2.023437-8.269531-.695313-10.308594 2.960937-2.039063 3.660157-.722656 8.285157 2.929687 10.339844zm0 0"/><path d="m415.003906 50.511719c1.222656.800781 29.96875 20.09375 29.96875 68.632812 0 4.199219 3.40625 7.601563 7.605469 7.601563s7.601563-3.402344 7.601563-7.601563c0-57.25-35.464844-80.480469-36.976563-81.441406-3.527344-2.246094-8.191406-1.207031-10.457031 2.3125-2.265625 3.515625-1.246094 8.210937 2.257812 10.496094zm0 0"/><path d="m51.949219 170.339844c4.199219 0 7.605469-3.40625 7.605469-7.605469 0-35.191406 9.046874-65.222656 26.886718-89.261719 13.238282-17.835937 26.695313-25.578125 26.992188-25.75 3.660156-2.035156 4.988281-6.652344 2.960937-10.320312-2.035156-3.675782-6.660156-5.007813-10.335937-2.980469-.648438.359375-16.042969 9.003906-31.292969 29.269531-13.875 18.441406-30.417969 50.597656-30.417969 99.042969 0 4.199219 3.402344 7.605469 7.601563 7.605469zm0 0"/><path d="m18.496094 126.746094c4.199218 0 7.601562-3.402344 7.601562-7.601563 0-48.5 28.703125-67.804687 29.96875-68.628906 3.515625-2.261719 4.546875-6.945313 2.300782-10.476563-2.253907-3.542968-6.953126-4.585937-10.5-2.332031-1.507813.960938-36.976563 24.1875-36.976563 81.4375 0 4.199219 3.40625 7.601563 7.605469 7.601563zm0 0"/>
        </symbol>
    </defs>
</svg>