<?xml version="1.0" encoding="UTF-8"?>
<svg aria-hidden="true" style="position: absolute; width: 0; height: 0; overflow: hidden;" version="1.1" xmlns="http://www.w3.org/2000/svg" xmlns:xlink="http://www.w3.org/1999/xlink">
    <defs>
        <symbol id="icon-infinite" viewBox="0 0 24 24">
            <title>infinite</title>
            <!--Generated by IJSVG (https://github.com/iconjar/IJSVG)-->
            <path d="M18.6,6.62c-1.44,0 -2.8,0.56 -3.77,1.53l-2.83,2.51l-1.52,1.34h0.01l-2.69,2.39c-0.64,0.64 -1.49,0.99 -2.4,0.99c-1.87,0 -3.39,-1.51 -3.39,-3.38c0,-1.87 1.52,-3.38 3.39,-3.38c0.91,0 1.76,0.35 2.44,1.03l1.13,1l1.51,-1.34l-1.26,-1.11c-1.02,-1.02 -2.38,-1.58 -3.82,-1.58c-2.98,0 -5.4,2.42 -5.4,5.38c0,2.96 2.42,5.38 5.4,5.38c1.44,0 2.8,-0.56 3.77,-1.53l2.83,-2.5l0.01,0.01l1.51,-1.36h-0.01l2.69,-2.39c0.64,-0.64 1.49,-0.99 2.4,-0.99c1.87,0 3.39,1.51 3.39,3.38c0,1.87 -1.52,3.38 -3.39,3.38c-0.9,0 -1.76,-0.35 -2.44,-1.03l-1.14,-1.01l-1.51,1.34l1.27,1.12c1.02,1.01 2.37,1.57 3.82,1.57c2.98,0 5.4,-2.41 5.4,-5.38c0,-2.97 -2.42,-5.37 -5.4,-5.37Z"></path>
            <path fill="none" d="M0,0h24v24h-24v-24Z"></path>
        </symbol>
        <symbol id="icon-chevron_right" viewBox="0 0 24 24">
            <title>chevron right</title>
            <path d="M10 6L8.59 7.41 13.17 12l-4.58 4.59L10 18l6-6z"/>
            <path d="M0 0h24v24H0z" fill="none"/>
        </symbol>
        <symbol id="icon-chat" viewBox="0 0 24 24">
            <title>chat</title>
            <path d="M20 2H4c-1.1 0-2 .9-2 2v18l4-4h14c1.1 0 2-.9 2-2V4c0-1.1-.9-2-2-2z"/>
            <path d="M0 0h24v24H0z" fill="none"/>
        </symbol>
        <symbol id="icon-settings" viewBox="0 0 24 24">
            <title>settings</title>
            <path d="M0 0h24v24H0z" fill="none"/>
            <path d="M19.43 12.98c.04-.32.07-.64.07-.98s-.03-.66-.07-.98l2.11-1.65c.19-.15.24-.42.12-.64l-2-3.46c-.12-.22-.39-.3-.61-.22l-2.49 1c-.52-.4-1.08-.73-1.69-.98l-.38-2.65C14.46 2.18 14.25 2 14 2h-4c-.25 0-.46.18-.49.42l-.38 2.65c-.61.25-1.17.59-1.69.98l-2.49-1c-.23-.09-.49 0-.61.22l-2 3.46c-.13.22-.07.49.12.64l2.11 1.65c-.04.32-.07.65-.07.98s.03.66.07.98l-2.11 1.65c-.19.15-.24.42-.12.64l2 3.46c.12.22.39.3.61.22l2.49-1c.52.4 1.08.73 1.69.98l.38 2.65c.03.24.24.42.49.42h4c.25 0 .46-.18.49-.42l.38-2.65c.61-.25 1.17-.59 1.69-.98l2.49 1c.23.09.49 0 .61-.22l2-3.46c.12-.22.07-.49-.12-.64l-2.11-1.65zM12 15.5c-1.93 0-3.5-1.57-3.5-3.5s1.57-3.5 3.5-3.5 3.5 1.57 3.5 3.5-1.57 3.5-3.5 3.5z"/>
        </symbol>
        <symbol id="icon-trends" viewBox="0 0 24 24">
            <title>trends</title>
            <path d="M13.5.67s.74 2.65.74 4.8c0 2.06-1.35 3.73-3.41 3.73-2.07 0-3.63-1.67-3.63-3.73l.03-.36C5.21 7.51 4 10.62 4 14c0 4.42 3.58 8 8 8s8-3.58 8-8C20 8.61 17.41 3.8 13.5.67zM11.71 19c-1.78 0-3.22-1.4-3.22-3.14 0-1.62 1.05-2.76 2.81-3.12 1.77-.36 3.6-1.21 4.62-2.58.39 1.29.59 2.65.59 4.04 0 2.65-2.15 4.8-4.8 4.8z"/>
            <path d="M0 0h24v24H0z" fill="none"/>
        </symbol>
        <symbol id="icon-search" viewBox="0 0 24 24">
            <title>search</title>
            <path d="M15.5 14h-.79l-.28-.27C15.41 12.59 16 11.11 16 9.5 16 5.91 13.09 3 9.5 3S3 5.91 3 9.5 5.91 16 9.5 16c1.61 0 3.09-.59 4.23-1.57l.27.28v.79l5 4.99L20.49 19l-4.99-5zm-6 0C7.01 14 5 11.99 5 9.5S7.01 5 9.5 5 14 7.01 14 9.5 11.99 14 9.5 14z"/>
            <path d="M0 0h24v24H0z" fill="none"/>
        </symbol>
        <symbol id="icon-mail" viewBox="0 0 24 24">
            <title>mail</title>
            <path d="M20 4H4c-1.1 0-1.99.9-1.99 2L2 18c0 1.1.9 2 2 2h16c1.1 0 2-.9 2-2V6c0-1.1-.9-2-2-2zm0 4l-8 5-8-5V6l8 5 8-5v2z"/>
            <path d="M0 0h24v24H0z" fill="none"/>
        </symbol>
        <symbol id="icon-lock" viewBox="0 0 24 24">
            <title>lock</title>       
            <path d="M0 0h24v24H0z" fill="none"/>
            <path d="M18 8h-1V6c0-2.76-2.24-5-5-5S7 3.24 7 6v2H6c-1.1 0-2 .9-2 2v10c0 1.1.9 2 2 2h12c1.1 0 2-.9 2-2V10c0-1.1-.9-2-2-2zm-6 9c-1.1 0-2-.9-2-2s.9-2 2-2 2 .9 2 2-.9 2-2 2zm3.1-9H8.9V6c0-1.71 1.39-3.1 3.1-3.1 1.71 0 3.1 1.39 3.1 3.1v2z"/>
        </symbol>
        <symbol id="icon-pen" viewBox="0 0 24 24">
            <title>pen</title>       
            <path d="M3 17.25V21h3.75L17.81 9.94l-3.75-3.75L3 17.25zM20.71 7.04c.39-.39.39-1.02 0-1.41l-2.34-2.34c-.39-.39-1.02-.39-1.41 0l-1.83 1.83 3.75 3.75 1.83-1.83z"/>
            <path d="M0 0h24v24H0z" fill="none"/>
        </symbol>
        <symbol id="icon-error" viewBox="0 0 24 24">
            <title>error</title>       
            <path fill="none" d="M0 0h24v24H0V0z"/>
            <path d="M11 15h2v2h-2zm0-8h2v6h-2zm.99-5C6.47 2 2 6.48 2 12s4.47 10 9.99 10C17.52 22 22 17.52 22 12S17.52 2 11.99 2zM12 20c-4.42 0-8-3.58-8-8s3.58-8 8-8 8 3.58 8 8-3.58 8-8 8z"/>
        </symbol>
        <symbol id="icon-check" viewBox="0 0 24 24">
            <title>check</title>       
            <path d="M0 0h24v24H0z" fill="none"/>
            <path d="M9 16.17L4.83 12l-1.42 1.41L9 19 21 7l-1.41-1.41z"/>
        </symbol>
    </defs>
</svg>